<svg xmlns="http://www.w3.org/2000/svg" width="200" height="40" viewBox="0,0,200,40"><path fill="#333" d="M177.52 18.14L177.36 17.97L177.50 18.12Q175.65 20.80 172.99 26.44L172.87 26.31L170.99 30.68L170.99 30.68Q170.07 32.54 168.74 34.79L168.73 34.78L168.82 34.86Q169.13 34.72 167.45 34.75L167.54 34.85L167.45 34.76Q167.52 34.82 166.26 34.82L166.35 34.91L166.33 34.89Q165.58 33.38 162.65 26.22L162.64 26.21L162.69 26.26Q160.49 20.86 158.39 17.85L158.38 17.84L158.31 17.77Q159.07 20.85 159.07 24.01L159.16 24.11L159.16 24.10Q159.21 30.66 156.24 36.22L156.09 36.07L156.21 36.19Q154.82 36.47 152.46 37.19L152.55 37.29L152.51 37.25Q156.23 31.61 156.23 24.37L156.19 24.33L156.23 24.37Q156.10 15.29 150.69 8.33L150.70 8.33L150.75 8.38Q152.41 9.12 154.77 9.81L154.66 9.71L154.84 9.89Q161.75 16.49 167.85 29.82L167.81 29.79L167.90 29.88Q171.47 22.93 173.67 19.43L173.55 19.30L173.60 19.35Q177.10 13.49 181.06 10.03L181.09 10.06L181.14 10.11Q182.41 9.90 184.77 9.13L184.73 9.09L184.82 9.19Q179.68 15.66 179.68 24.26L179.72 24.29L179.73 24.31Q179.76 31.00 183.19 36.52L183.12 36.45L183.22 36.55Q181.84 36.20 179.10 35.59L179.18 35.67L179.08 35.57Q176.80 30.85 176.80 24.88L176.78 24.86L176.75 24.83Q176.72 21.37 177.41 18.02ZM178.93 35.99L178.94 36.00L178.92 35.98Q179.61 36.10 181.05 36.36L181.15 36.46L180.97 36.28Q181.48 37.10 182.43 38.58L182.49 38.64L182.41 38.56Q184.70 39.13 188.16 40.35L188.10 40.29L188.09 40.28Q181.83 33.95 181.83 24.12L181.84 24.13L181.72 24.01Q181.69 16.26 186.07 10.13L186.25 10.30L183.99 10.94L184.06 11.01Q185.01 9.41 185.66 8.54L185.55 8.43L185.54 8.42Q183.81 9.20 181.19 9.73L181.09 9.64L181.22 9.77Q174.32 15.73 168.27 28.33L168.26 28.33L168.22 28.29Q163.14 17.42 158.19 12.17L158.10 12.08L158.21 12.19Q157.84 12.13 157.27 12.01L157.25 11.99L156.03 10.69L156.09 10.75Q155.37 9.95 154.68 9.34L154.79 9.45L154.67 9.34Q151.75 8.47 149.96 7.74L149.89 7.67L149.90 7.68Q155.93 14.94 155.93 24.34L155.88 24.29L155.88 24.28Q155.93 31.95 151.78 37.81L151.68 37.71L151.70 37.73Q152.34 37.46 153.64 37.04L153.66 37.07L153.67 37.07Q153.65 37.44 152.24 39.53L152.23 39.52L152.18 39.47Q154.00 39.01 157.51 38.25L157.43 38.17L157.59 38.33Q161.19 31.15 161.00 23.39L161.03 23.42L160.97 23.36Q162.61 27.48 166.08 35.36L165.94 35.22L166.06 35.35Q166.19 35.17 166.42 35.17L166.50 35.25L167.07 35.29L166.98 35.19Q167.40 35.85 168.20 37.14L168.25 37.19L168.21 37.15Q169.84 37.14 169.84 37.14L169.83 37.14L169.91 37.21Q170.85 37.13 171.50 37.20L171.49 37.19L171.58 37.29Q173.10 33.20 176.45 25.21L176.42 25.19L176.35 25.12Q176.32 30.64 178.91 35.97Z"/><path d="M4 25 C91 15,94 22,195 30" stroke="#999" fill="none"/><path fill="#333" d="M147.16 35.40L147.14 35.38L147.20 35.44Q144.14 31.47 141.51 22.82L141.46 22.77L141.53 22.84Q140.84 20.67 140.04 18.53L140.16 18.65L137.13 27.28L137.27 27.42Q135.28 32.16 132.88 35.40L133.06 35.58L132.90 35.41Q132.09 35.52 130.45 35.67L130.42 35.64L130.50 35.72Q130.64 34.57 130.64 33.31L130.62 33.29L130.57 33.24Q130.66 27.31 127.91 21.18L127.78 21.05L127.98 21.24Q124.73 14.22 118.86 9.24L118.84 9.21L118.84 9.22Q120.96 9.88 123.32 10.42L123.42 10.52L123.29 10.39Q132.03 18.90 133.32 29.86L133.28 29.82L133.41 29.95Q135.08 26.67 136.53 21.30L136.45 21.22L136.37 21.15Q138.49 13.79 138.99 12.38L139.01 12.40L141.12 12.27L141.21 12.36Q141.98 14.46 142.63 16.78L142.58 16.73L143.67 21.02L143.66 21.01Q145.39 26.62 146.79 29.86L146.71 29.77L146.71 29.78Q148.37 18.14 156.29 10.80L156.38 10.89L156.25 10.76Q157.83 10.47 160.80 9.83L160.74 9.77L160.86 9.89Q155.44 14.11 152.40 20.23L152.39 20.22L152.46 20.30Q149.43 26.59 149.43 33.37L149.44 33.38L149.25 33.19Q149.32 34.36 149.40 35.51L149.52 35.63L148.34 35.48L148.37 35.51Q147.71 35.38 147.14 35.38ZM153.40 38.29L153.29 38.18L153.35 38.24Q152.14 34.71 152.26 30.83L152.15 30.72L152.19 30.76Q152.50 19.19 161.86 10.93L161.86 10.93L161.95 11.02Q160.95 11.20 159.01 11.73L159.00 11.72L159.01 11.73Q160.00 10.93 161.90 9.15L161.88 9.12L162.00 9.24Q159.16 9.82 156.23 10.32L156.32 10.42L156.25 10.34Q148.74 17.45 146.84 26.93L146.96 27.05L146.88 26.98Q146.29 25.32 143.43 13.86L143.39 13.82L143.57 14.00Q143.09 14.00 142.13 14.00L142.04 13.91L141.84 12.95L141.82 12.93Q141.70 12.39 141.48 11.90L141.55 11.97L138.51 11.83L138.50 11.82Q137.79 14.38 136.51 19.50L136.55 19.54L136.55 19.54Q135.15 24.53 134.16 27.01L134.22 27.07L134.20 27.05Q132.64 19.17 127.08 12.85L127.15 12.91L127.14 12.91Q126.61 12.79 125.65 12.60L125.66 12.60L125.70 12.65Q124.86 11.70 123.30 10.06L123.34 10.09L123.41 10.17Q119.89 9.24 117.72 8.44L117.75 8.47L117.70 8.42Q123.54 13.27 126.82 19.47L126.78 19.44L126.82 19.48Q130.16 25.98 130.16 32.99L130.28 33.11L130.15 32.97Q130.15 34.53 129.96 36.13L129.98 36.15L130.08 36.25Q130.17 36.12 130.63 36.02L130.74 36.13L130.65 36.04Q131.24 36.08 131.47 36.08L131.45 36.06L131.47 37.11L131.38 37.02Q131.34 37.43 131.41 37.97L131.51 38.07L131.45 38.00Q132.64 37.97 134.92 37.82L134.80 37.70L134.89 37.79Q138.49 32.37 141.23 22.96L141.15 22.88L141.18 22.91Q144.07 31.81 147.04 35.77L147.06 35.79L146.92 35.65Q147.48 35.76 148.32 35.87L148.30 35.86L148.39 35.95Q149.09 36.84 150.16 37.90L150.15 37.90L150.16 37.90Q151.06 38.08 153.46 38.35Z"/><path d="M18 19 C96 30,117 4,192 8" stroke="#222" fill="none"/><path fill="#333" d="M17.11 33.87L17.27 34.03L17.15 33.91Q19.13 31.63 23.89 24.36L23.81 24.28L23.87 24.34Q27.90 18.13 30.76 14.86L30.69 14.79L30.77 14.87Q28.54 15.04 26.45 15.04L26.59 15.18L26.57 15.17Q21.32 15.17 17.32 13.38L17.26 13.32L17.33 13.38Q16.61 11.41 15.92 9.85L15.97 9.89L16.00 9.92Q20.53 12.06 26.21 12.17L26.24 12.21L26.17 12.14Q31.34 12.24 36.51 10.34L36.39 10.21L36.53 10.35Q36.16 11.20 35.85 12.00L35.77 11.92L35.13 13.44L35.14 13.45Q32.05 17.07 28.06 22.89L28.18 23.02L24.87 27.85L24.76 27.74Q23.10 30.19 21.27 32.47L21.33 32.54L21.27 32.47Q24.58 31.86 27.89 31.94L27.91 31.96L27.85 31.90Q31.30 32.12 34.46 33.03L34.51 33.08L34.93 34.60L34.88 34.55Q35.10 35.34 35.45 36.18L35.47 36.20L35.56 36.29Q30.91 34.73 25.77 34.92L25.64 34.79L25.80 34.95Q20.60 35.07 16.10 37.09L16.20 37.19L16.16 37.15Q16.43 35.97 17.15 33.92ZM15.48 37.77L15.58 37.87L15.54 37.82Q16.76 37.21 17.56 36.95L17.56 36.95L17.43 36.82Q17.25 37.67 16.57 39.20L16.60 39.22L16.65 39.28Q22.18 36.96 28.16 37.19L28.15 37.18L28.26 37.29Q34.59 37.54 39.62 40.31L39.68 40.38L39.65 40.35Q38.25 37.96 37.45 35.79L37.38 35.72L37.37 35.71Q36.85 35.46 35.33 34.89L35.41 34.97L35.44 34.99Q35.15 34.14 34.73 32.65L34.79 32.70L34.74 32.66Q30.66 31.55 25.56 31.74L25.57 31.75L25.56 31.74Q27.63 28.94 31.17 23.38L31.11 23.31L31.09 23.30Q34.86 17.71 36.77 15.16L36.76 15.15L36.69 15.08Q37.26 13.74 38.29 11.04L38.20 10.95L38.35 11.11Q37.61 11.39 36.16 12.00L36.06 11.90L36.04 11.88Q36.49 11.19 37.21 9.66L37.27 9.72L37.11 9.56Q31.81 11.72 26.10 11.64L26.13 11.68L26.24 11.79Q20.14 11.55 15.19 9.04L15.32 9.17L15.17 9.02Q16.33 11.39 17.05 13.64L17.10 13.69L17.18 13.77Q18.14 14.15 18.94 14.38L19.08 14.52L18.95 14.40Q19.26 15.13 19.53 16.58L19.55 16.59L19.61 16.65Q23.17 17.55 28.04 17.36L28.08 17.39L28.11 17.42Q25.74 20.65 22.42 25.64L22.44 25.65L16.85 33.92L16.93 33.99Q16.58 35.28 15.55 37.83Z"/><path fill="#111" d="M53.84 14.65L53.77 14.57L53.87 14.67Q51.84 14.73 50.89 14.89L50.87 14.87L50.86 14.86Q49.26 15.12 48.04 15.66L48.10 15.71L48.07 15.68Q44.62 17.18 44.50 21.86L44.46 21.83L44.43 21.79Q44.33 24.44 44.98 27.37L45.09 27.47L45.08 27.47Q45.82 31.37 49.44 32.55L49.62 32.73L49.56 32.67Q51.43 33.21 52.88 33.05L52.92 33.10L53.39 33.12L53.30 33.02Q53.39 32.93 53.58 32.96L53.77 33.15L53.67 33.05Q53.80 33.03 53.95 32.99L54.01 33.05L54.08 33.11Q56.71 32.85 58.08 32.28L58.06 32.26L54.45 28.69L54.32 28.56Q54.74 28.33 55.35 27.72L55.26 27.63L56.37 26.91L56.17 26.72Q58.02 28.80 60.00 30.85L60.00 30.85L59.98 30.83Q62.40 29.10 62.67 23.74L62.63 23.70L62.58 23.65Q62.84 22.92 62.84 22.00L62.73 21.89L62.73 21.89Q62.83 16.33 57.77 15.22L57.69 15.14L57.68 15.13Q56.46 14.91 53.95 14.75ZM66.59 36.68L66.64 36.73L66.58 36.67Q66.07 37.19 64.89 38.06L64.87 38.04L60.38 34.28L60.45 34.35Q57.98 35.57 53.72 35.61L53.64 35.53L53.79 35.68Q47.18 35.74 44.37 33.49L44.28 33.41L44.40 33.53Q42.52 31.65 42.07 28.68L42.13 28.74L42.15 28.76Q41.99 27.00 41.60 23.42L41.55 23.37L41.46 23.28Q41.46 22.55 41.34 20.80L41.42 20.88L41.48 20.94Q41.31 19.36 41.35 18.48L41.25 18.39L41.25 18.38Q41.40 15.37 43.15 13.81L43.27 13.93L43.16 13.82Q44.78 12.58 47.98 12.09L47.94 12.05L47.93 12.04Q50.36 11.62 53.26 11.70L53.33 11.77L53.17 11.61Q60.71 11.77 63.83 14.13L63.88 14.17L63.92 14.22Q66.09 16.34 65.82 21.26L65.85 21.29L65.83 21.27Q65.57 24.85 65.38 26.18L65.36 26.16L65.30 26.11Q64.72 30.66 62.40 32.98L62.40 32.99L62.36 32.94Q63.91 34.27 66.66 36.75ZM61.75 12.43L61.85 12.52L61.79 12.47Q59.73 11.70 53.22 11.21L53.34 11.33L53.33 11.32Q51.79 11.19 49.01 11.30L49.01 11.30L49.07 11.36Q44.86 11.60 42.61 13.58L42.70 13.66L42.71 13.68Q41.06 15.15 41.06 18.31L40.94 18.19L41.04 18.29Q40.99 19.07 41.14 20.79L41.07 20.71L41.09 20.74Q41.33 22.54 41.33 23.41L41.35 23.43L41.24 23.33Q41.42 25.10 41.80 28.68L41.81 28.69L41.81 28.69Q42.08 31.47 43.67 33.52L43.83 33.68L43.81 33.66Q44.05 34.39 45.27 35.54L45.21 35.47L45.31 35.58Q47.96 37.51 53.14 37.78L53.26 37.89L53.25 37.88Q53.51 37.80 55.91 37.92L55.91 37.92L55.99 37.99Q60.75 38.11 63.03 37.04L63.07 37.08L63.02 37.03Q63.86 37.68 68.58 41.26L68.54 41.22L68.70 41.38Q69.32 40.86 70.62 39.87L70.54 39.79L70.64 39.90Q69.60 39.04 68.80 38.35L68.83 38.38L67.23 36.98L67.33 36.92L67.34 36.93Q66.73 36.44 65.51 35.42L65.60 35.50L65.46 35.37Q67.38 32.86 67.38 28.33L67.34 28.29L67.49 28.44Q67.35 27.89 67.39 27.05L67.44 27.10L67.50 27.16Q67.52 26.31 67.52 25.89L67.55 25.92L67.43 25.79Q67.52 20.37 66.80 18.01L66.70 17.91L66.78 17.99Q66.42 16.72 65.55 15.65L65.46 15.56L65.56 15.67Q64.76 13.53 61.83 12.51ZM55.80 17.06L55.84 17.10L55.78 17.04Q59.92 17.03 61.75 18.63L61.71 18.59L61.73 18.61Q62.16 19.68 62.27 21.02L62.26 21.01L62.43 21.18Q62.45 22.38 62.37 23.75L62.41 23.78L62.38 23.75Q61.92 28.59 59.98 30.30L60.04 30.36L59.99 30.31Q58.75 29.07 56.24 26.33L56.18 26.27L56.19 26.28Q55.43 27.05 53.87 28.61L53.87 28.61L53.98 28.72Q54.43 29.20 55.57 30.38L55.54 30.35L55.55 30.47L55.59 30.51Q56.13 31.02 57.16 32.08L57.12 32.04L57.10 32.02Q56.19 32.38 53.87 32.68L53.76 32.57L53.38 32.72L52.89 32.66L52.81 32.61L52.96 32.76Q49.47 32.73 47.49 31.10L47.34 30.94L47.53 31.14Q46.39 28.93 46.42 25.80L46.36 25.74L46.42 25.80Q46.50 17.01 55.68 16.94Z"/><path fill="#444" d="M77.98 27.92L78.10 28.03L78.04 27.98Q81.17 27.64 84.37 27.76L84.22 27.61L84.22 27.61Q84.33 25.20 84.33 22.81L84.34 22.81L84.29 22.76Q84.36 20.36 84.55 17.81L84.43 17.68L84.46 17.72Q83.26 19.45 78.04 27.97ZM87.96 35.34L87.99 35.37L87.99 35.37Q86.17 34.92 84.38 34.84L84.46 34.92L84.42 34.89Q84.26 32.55 84.14 30.08L84.22 30.16L84.22 30.15Q78.89 29.96 74.17 31.37L74.11 31.32L74.13 31.33Q74.25 30.84 74.44 29.85L74.38 29.80L74.32 29.74Q76.28 26.75 79.86 20.47L79.70 20.31L79.70 20.31Q82.64 15.48 86.06 11.59L86.01 11.54L86.03 11.56Q86.97 11.44 88.65 11.17L88.72 11.25L88.60 11.12Q86.68 17.54 86.68 24.58L86.74 24.64L86.84 24.74Q86.81 26.20 86.88 27.68L86.72 27.52L88.20 27.82L88.02 27.63Q88.73 27.78 89.34 27.89L89.29 27.84L89.33 27.88Q89.47 28.90 89.74 30.84L89.68 30.78L89.61 30.71Q88.54 30.59 87.06 30.40L87.09 30.43L86.99 30.34Q87.29 32.43 87.98 35.36ZM89.58 27.49L89.61 27.51L89.57 27.47Q89.36 27.38 89.17 27.38L89.31 27.51L88.82 27.41L88.85 27.44Q88.69 25.91 88.69 24.50L88.71 24.52L88.77 24.58Q88.75 18.16 90.81 12.15L90.74 12.08L90.85 12.20Q90.07 12.44 88.63 12.83L88.50 12.70L88.64 12.84Q88.81 12.02 89.27 10.61L89.29 10.63L89.32 10.66Q87.87 10.88 85.81 11.11L85.85 11.16L85.82 11.12Q81.93 15.49 76.71 24.85L76.74 24.88L78.92 21.32L78.82 21.21Q78.47 22.31 78.20 22.88L78.17 22.84L73.81 31.96L73.72 31.88Q74.39 31.74 75.53 31.36L75.58 31.41L75.30 31.51L75.37 31.59Q75.33 32.35 75.03 33.60L74.87 33.45L75.00 33.58Q78.99 32.12 83.82 32.31L83.95 32.43L83.81 32.29Q84.01 33.41 84.20 35.39L84.11 35.30L84.06 35.25Q85.24 35.36 86.30 35.47L86.22 35.39L86.16 35.33Q86.49 36.20 86.76 37.57L86.57 37.38L86.70 37.51Q88.58 37.71 91.58 38.62L91.51 38.55L91.62 38.66Q90.55 36.45 89.64 33.17L89.75 33.28L91.20 33.75L91.09 33.64Q91.87 33.96 92.55 34.30L92.43 34.18L92.54 34.29Q91.65 31.68 91.50 30.01L91.51 30.03L91.44 29.95Q90.98 29.91 89.84 29.69L89.73 29.58L89.81 29.65Q89.50 28.28 89.50 27.40ZM81.50 27.25L81.51 27.26L81.67 27.42Q82.45 26.14 84.02 23.59L83.99 23.57L83.85 23.42Q83.94 24.47 83.91 25.43L83.80 25.32L83.90 25.42Q83.98 26.49 84.02 27.44L83.95 27.37L83.98 27.41Q83.44 27.40 82.87 27.40L82.69 27.22L82.78 27.31Q82.24 27.37 81.63 27.37Z"/><path fill="#222" d="M111.14 25.42L111.08 25.36L111.12 25.40Q107.59 31.69 104.16 35.65L104.20 35.69L104.27 35.76Q102.30 36.07 99.86 36.94L99.98 37.06L99.91 36.99Q104.82 31.40 109.58 22.99L109.58 22.99L109.70 23.11Q104.94 15.99 98.96 9.59L98.97 9.59L99.08 9.71Q101.88 10.79 104.17 11.29L104.18 11.31L104.24 11.36Q108.96 16.65 111.39 20.61L111.28 20.50L111.36 20.58Q113.81 16.10 117.74 11.69L117.81 11.76L117.66 11.61Q119.44 11.49 122.64 10.73L122.54 10.63L122.53 10.62Q116.54 17.15 113.07 23.09L112.90 22.92L112.91 22.93Q118.14 31.66 122.52 36.22L122.56 36.27L122.55 36.26Q119.88 35.38 117.79 35.15L117.85 35.21L117.86 35.22Q115.17 32.34 111.25 25.53ZM117.85 35.63L117.75 35.53L117.86 35.64Q118.00 35.52 118.46 35.63L118.52 35.69L118.51 35.68Q119.40 36.54 120.93 38.14L120.79 38.00L120.95 38.16Q124.28 38.94 127.32 40.31L127.17 40.16L127.21 40.20Q120.16 33.68 115.06 24.92L114.94 24.81L114.93 24.80Q118.72 18.20 124.62 11.34L124.73 11.45L124.60 11.32Q123.33 12.14 121.16 12.67L120.98 12.50L121.04 12.55Q122.03 11.75 123.78 9.97L123.76 9.94L123.62 9.81Q121.31 10.77 117.62 11.34L117.66 11.39L117.64 11.36Q114.17 15.13 111.58 19.43L111.68 19.53L111.61 19.46Q110.71 17.87 109.53 16.39L109.58 16.44L107.17 13.38L106.86 13.45L106.91 13.50Q106.66 13.41 106.43 13.33L106.52 13.42L106.49 13.39Q105.83 12.58 104.35 11.01L104.34 11.00L104.29 10.95Q100.45 10.04 97.86 8.67L97.89 8.70L97.94 8.76Q104.55 15.90 109.12 22.95L109.15 22.97L109.15 22.98Q104.59 31.09 98.84 37.68L98.87 37.71L98.94 37.78Q100.33 37.19 102.46 36.61L102.40 36.55L101.07 37.96L101.15 38.04Q101.08 37.98 99.75 39.31L99.72 39.27L99.80 39.36Q102.74 38.22 105.90 37.73L105.91 37.74L105.85 37.68Q109.87 33.17 112.46 28.41L112.44 28.40L112.60 28.55Q115.02 32.65 117.72 35.51Z"/></svg>